<svg width="91" height="19" viewBox="0 0 91 19" fill="none" xmlns="http://www.w3.org/2000/svg">
<path d="M0.18013 18.2294V0.421387H7.33213C11.8201 0.421387 13.7401 2.10139 13.9561 4.64539C14.1721 6.13339 13.3801 7.98139 11.8681 8.62939C13.7161 9.46939 14.6281 11.5814 14.4121 13.6214C14.1001 16.5734 12.1081 18.2294 8.22013 18.2294H0.18013ZM4.35613 4.18939V7.11739H8.10013C9.15613 7.04539 9.78013 6.51739 9.78013 5.62939C9.78013 4.76539 9.13213 4.18939 7.95613 4.18939H4.35613ZM4.35613 10.7414V14.4614H8.05213C9.73213 14.4854 10.2121 13.6454 10.2121 12.5894C10.2121 11.6054 9.58813 10.7414 7.86013 10.7414H4.35613Z" fill="#FF6652"/>
<path d="M22.8326 14.7494C24.4406 14.7494 25.9046 13.7174 25.9046 11.6054C25.9046 9.58939 24.4406 8.46139 22.8326 8.46139C21.2726 8.46139 19.8566 9.58939 19.8566 11.6054C19.8566 13.7174 21.2726 14.7494 22.8326 14.7494ZM22.8806 18.5414C18.6806 18.5414 15.7046 15.7814 15.7046 11.6054C15.7046 7.26139 18.9446 4.66939 22.8806 4.66939C26.8166 4.66939 30.0566 7.26139 30.0566 11.6054C30.0566 15.7814 27.0806 18.5414 22.8806 18.5414Z" fill="#FF6652"/>
<path d="M38.3716 14.7494C39.9796 14.7494 41.4436 13.7174 41.4436 11.6054C41.4436 9.58939 39.9796 8.46139 38.3716 8.46139C36.8116 8.46139 35.3956 9.58939 35.3956 11.6054C35.3956 13.7174 36.8116 14.7494 38.3716 14.7494ZM38.4196 18.5414C34.2196 18.5414 31.2436 15.7814 31.2436 11.6054C31.2436 7.26139 34.4836 4.66939 38.4196 4.66939C42.3556 4.66939 45.5956 7.26139 45.5956 11.6054C45.5956 15.7814 42.6196 18.5414 38.4196 18.5414Z" fill="#FF6652"/>
<path d="M55.0387 18.4454C53.7667 18.8054 52.2067 18.7574 50.4067 18.4694C49.1587 18.2294 47.7427 17.6054 46.4947 16.7414L48.1747 13.4774C49.7347 14.2934 51.1987 14.8934 52.5907 15.0854C53.4787 15.2774 53.6707 14.1974 52.8787 13.8614C51.8467 13.3574 50.4787 13.0934 48.8227 12.0854C47.2387 11.1254 46.4467 9.15739 47.2627 7.23739C47.8627 5.65339 49.3267 4.62139 51.9907 4.52539C54.1267 4.45339 55.9507 5.07739 57.7507 6.46939L55.5907 9.46939C54.2707 8.65339 53.2387 8.31739 52.2307 8.24539C51.6787 8.17339 51.3667 9.10939 51.9427 9.42139C52.9267 9.97339 54.3427 10.2614 55.6867 10.9814C57.4627 11.8934 58.3027 13.3094 58.0387 15.1574C57.8227 16.9574 56.6947 17.9654 55.0387 18.4454Z" fill="#FF6652"/>
<path d="M65.1103 12.6854C65.1103 13.6934 65.2303 14.1734 65.7583 14.3654C66.1183 14.4854 66.4303 14.4614 67.1983 14.1974L67.8943 17.8694C66.6463 18.4454 64.6303 18.6614 63.2143 18.1094C61.5583 17.4374 60.9583 15.9734 60.9583 13.4534V8.77339H58.7983V5.02939H60.9583V0.421387H65.1103V5.02939H67.7983V8.77339H65.1103V12.6854Z" fill="#FF6652"/>
<path d="M68.8396 11.7014C68.8396 7.28539 71.5276 4.54939 75.4156 4.54939C79.3996 4.54939 81.7036 7.47739 81.7036 11.7494L81.6076 13.0694H72.9436C73.0396 14.2934 74.2156 14.9654 75.5836 14.9654C76.8316 14.9654 77.6956 14.4614 78.4636 13.5254L81.1756 15.8774C79.7596 17.8214 77.8396 18.7094 75.4156 18.7094C71.5516 18.7094 68.7676 16.0214 68.8396 11.7014ZM77.6476 9.85339C77.4796 8.74939 76.5196 8.22139 75.4396 8.22139C74.2396 8.22139 73.3276 8.82139 73.1836 9.85339H77.6476Z" fill="#FF6652"/>
<path d="M90.8199 4.90939V8.86939H90.4359C89.4519 8.86939 88.4199 9.13339 87.5559 9.75739V18.2294H83.2839V5.02939H87.5559V5.98939C88.4439 5.31739 89.2359 5.02939 90.3879 4.90939H90.8199Z" fill="#FF6652"/>
</svg>
